<svg width="22" height="27" viewBox="0 0 22 27" fill="none" xmlns="http://www.w3.org/2000/svg">
<path d="M16 3.5C17.1625 3.5 17.7437 3.5 18.2206 3.62778C19.5147 3.97453 20.5255 4.98533 20.8722 6.27943C21 6.7563 21 7.33754 21 8.5V20C21 22.1002 21 23.1503 20.5913 23.9525C20.2317 24.6581 19.6581 25.2317 18.9525 25.5913C18.1503 26 17.1002 26 15 26H7C4.8998 26 3.8497 26 3.04754 25.5913C2.34193 25.2317 1.76825 24.6581 1.40873 23.9525C1 23.1503 1 22.1002 1 20V8.5C1 7.33754 1 6.7563 1.12778 6.27943C1.47453 4.98533 2.48533 3.97453 3.77943 3.62778C4.2563 3.5 4.83754 3.5 6 3.5M8 6H14C14.7001 6 15.0501 6 15.3175 5.86376C15.5527 5.74392 15.7439 5.55269 15.8638 5.31749C16 5.0501 16 4.70007 16 4V3C16 2.29993 16 1.9499 15.8638 1.68251C15.7439 1.44731 15.5527 1.25608 15.3175 1.13624C15.0501 1 14.7001 1 14 1H8C7.29993 1 6.9499 1 6.68251 1.13624C6.44731 1.25608 6.25608 1.44731 6.13624 1.68251C6 1.9499 6 2.29993 6 3V4C6 4.70007 6 5.0501 6.13624 5.31749C6.25608 5.55269 6.44731 5.74392 6.68251 5.86376C6.9499 6 7.29993 6 8 6Z" stroke="#D10119" stroke-width="2" stroke-linecap="round" stroke-linejoin="round"/>
</svg>
