<svg width="32" height="32" viewBox="0 0 32 32" fill="none" xmlns="http://www.w3.org/2000/svg">
<g clip-path="url(#clip0_295_1306)">
<path d="M27.0312 17.9844C27.7188 17.9844 28.3698 18.1146 28.9844 18.375C29.599 18.6354 30.1302 18.9948 30.5781 19.4531C31.026 19.9115 31.3854 20.4427 31.6562 21.0469C31.9271 21.651 32.0625 22.3021 32.0625 23C32.0625 23.6875 31.9323 24.3333 31.6719 24.9375C31.4115 25.5417 31.0521 26.0729 30.5938 26.5312C30.1354 26.9896 29.599 27.349 28.9844 27.6094C28.3698 27.8698 27.7188 28.0052 27.0312 28.0156C26.0208 28.0156 25.099 27.7344 24.2656 27.1719L19.7031 31.7344C19.5052 31.9323 19.2708 32.0312 19 32.0312C18.7292 32.0312 18.4948 31.9323 18.2969 31.7344C18.099 31.5365 18 31.3021 18 31.0312C18 30.7604 18.099 30.526 18.2969 30.3281L22.8594 25.7656C22.2969 24.9323 22.0156 24.0104 22.0156 23C22.0156 22.3125 22.1458 21.6667 22.4062 21.0625C22.6667 20.4583 23.026 19.9271 23.4844 19.4688C23.9427 19.0104 24.474 18.651 25.0781 18.3906C25.6823 18.1302 26.3333 17.9948 27.0312 17.9844ZM27.0312 26.0156C27.4479 26.0156 27.8385 25.9375 28.2031 25.7812C28.5677 25.625 28.8854 25.4115 29.1562 25.1406C29.4271 24.8698 29.6458 24.5469 29.8125 24.1719C29.9792 23.7969 30.0625 23.4062 30.0625 23C30.0625 22.5833 29.9844 22.1927 29.8281 21.8281C29.6719 21.4635 29.4531 21.1458 29.1719 20.875C28.8906 20.6042 28.5729 20.3854 28.2188 20.2188C27.8646 20.0521 27.4688 19.974 27.0312 19.9844C26.6146 19.9844 26.224 20.0625 25.8594 20.2188C25.4948 20.375 25.1771 20.5938 24.9062 20.875C24.6354 21.1562 24.4167 21.474 24.25 21.8281C24.0833 22.1823 24.0052 22.5729 24.0156 23C24.0156 23.4167 24.0938 23.8073 24.25 24.1719C24.4062 24.5365 24.6198 24.8542 24.8906 25.125C25.1615 25.3958 25.4844 25.6146 25.8594 25.7812C26.2344 25.9479 26.625 26.026 27.0312 26.0156Z" fill="#D10119"/>
<path d="M22.9375 17.7969C22.3958 18.2448 21.9323 18.7448 21.5469 19.2969C20.6823 18.8594 19.7812 18.5365 18.8438 18.3281C17.9062 18.1198 16.9479 18.0104 15.9688 18C14.8438 18 13.7708 18.1406 12.75 18.4219C11.7292 18.7031 10.7708 19.099 9.875 19.6094C8.97917 20.1198 8.17708 20.7396 7.46875 21.4688C6.76042 22.1979 6.14062 23.0052 5.60938 23.8906C5.07812 24.776 4.68229 25.7396 4.42188 26.7812C4.16146 27.8229 4.02083 28.8958 4 30H2C2 28.4792 2.22396 27.0156 2.67188 25.6094C3.11979 24.2031 3.76562 22.9167 4.60938 21.75C5.45312 20.5833 6.45833 19.5625 7.625 18.6875C8.79167 17.8125 10.1146 17.1406 11.5938 16.6719C11.0312 16.2969 10.5312 15.8646 10.0938 15.375C9.65625 14.8854 9.28125 14.3542 8.96875 13.7812C8.65625 13.2083 8.41667 12.6042 8.25 11.9688C8.08333 11.3333 8 10.6771 8 10C8 8.89583 8.20833 7.85938 8.625 6.89062C9.04167 5.92188 9.61458 5.07812 10.3438 4.35938C11.0729 3.64062 11.9219 3.06771 12.8906 2.64062C13.8594 2.21354 14.8958 2 16 2C17.1042 2 18.1406 2.20833 19.1094 2.625C20.0781 3.04167 20.9219 3.61458 21.6406 4.34375C22.3594 5.07292 22.9323 5.92188 23.3594 6.89062C23.7865 7.85938 24 8.89583 24 10C24 10.6771 23.9167 11.3333 23.75 11.9688C23.5833 12.6042 23.349 13.2135 23.0469 13.7969C22.7448 14.3802 22.3646 14.9115 21.9062 15.3906C21.4479 15.8698 20.9427 16.3021 20.3906 16.6875C20.8385 16.8333 21.2708 16.9948 21.6875 17.1719C22.1042 17.349 22.5208 17.5573 22.9375 17.7969ZM10 10C10 10.8333 10.1562 11.6094 10.4688 12.3281C10.7812 13.0469 11.2083 13.6823 11.75 14.2344C12.2917 14.7865 12.9271 15.2188 13.6562 15.5312C14.3854 15.8438 15.1667 16 16 16C16.8229 16 17.599 15.8438 18.3281 15.5312C19.0573 15.2188 19.6927 14.7917 20.2344 14.25C20.776 13.7083 21.2083 13.0729 21.5312 12.3438C21.8542 11.6146 22.0104 10.8333 22 10C22 9.17708 21.8438 8.40104 21.5312 7.67188C21.2188 6.94271 20.7917 6.30729 20.25 5.76562C19.7083 5.22396 19.0677 4.79167 18.3281 4.46875C17.5885 4.14583 16.8125 3.98958 16 4C15.1667 4 14.3906 4.15625 13.6719 4.46875C12.9531 4.78125 12.3177 5.20833 11.7656 5.75C11.2135 6.29167 10.7812 6.93229 10.4688 7.67188C10.1562 8.41146 10 9.1875 10 10Z" fill="black"/>
</g>
<defs>
<clipPath id="clip0_295_1306">
<rect width="32" height="32" fill="white"/>
</clipPath>
</defs>
</svg>
