<svg width="24" height="25" viewBox="0 0 24 25" fill="none" xmlns="http://www.w3.org/2000/svg">
<circle cx="12" cy="12.0376" r="12" fill="#D10119"/>
<path d="M10.212 15.6367L18.4587 7.33162C18.6533 7.13562 18.8804 7.03763 19.1399 7.03763C19.3994 7.03763 19.6264 7.13562 19.821 7.33162C20.0156 7.52761 20.1129 7.76051 20.1129 8.03032C20.1129 8.30014 20.0156 8.53271 19.821 8.72805L10.8931 17.7436C10.6985 17.9396 10.4714 18.0376 10.212 18.0376C9.95247 18.0376 9.72542 17.9396 9.53081 17.7436L5.34661 13.5298C5.152 13.3338 5.05858 13.1013 5.06637 12.8321C5.07415 12.5629 5.17567 12.33 5.37094 12.1334C5.5662 11.9368 5.79747 11.8388 6.06474 11.8394C6.33201 11.8401 6.56295 11.9381 6.75756 12.1334L10.212 15.6367Z" fill="#F9FAFB"/>
</svg>
