<svg width="24" height="24" viewBox="0 0 24 24" fill="none" xmlns="http://www.w3.org/2000/svg">
<rect width="24" height="24" rx="12" fill="#F9FAFB"/>
<path d="M13.0969 19.8363C15.6713 19.3212 19 17.4708 19 12.6864C19 8.3331 15.8105 5.43365 13.5169 4.10158C13.0072 3.80538 12.4118 4.19456 12.4118 4.78284V6.28686C12.4118 7.4733 11.9127 9.63884 10.5259 10.5398C9.81765 10.9997 9.05176 10.311 8.96612 9.47181L8.89529 8.78233C8.81294 7.98095 7.996 7.49469 7.35529 7.98342C6.20318 8.85967 5 10.3983 5 12.6856C5 18.5363 9.35565 20 11.5331 20C11.6604 20 11.7933 19.9959 11.9316 19.9877C10.8561 19.8963 9.11765 19.2299 9.11765 17.0742C9.11765 15.3875 10.3488 14.248 11.2844 13.6926C11.5364 13.5445 11.8304 13.7379 11.8304 14.03V14.5154C11.8304 14.8857 11.9745 15.4657 12.3162 15.8623C12.7033 16.3115 13.2707 15.8409 13.316 15.2501C13.3308 15.0642 13.5186 14.9457 13.68 15.0395C14.2079 15.348 14.8824 16.0063 14.8824 17.0742C14.8824 18.7593 13.9526 19.5343 13.0969 19.8363Z" fill="#D10119"/>
</svg>
