<svg width="44" height="33" viewBox="0 0 44 33" fill="none" xmlns="http://www.w3.org/2000/svg">
<path d="M11.6204 0.00225623C5.34766 0.00225623 0 4.69556 0 10.7878C0 14.9915 1.96758 18.5295 4.57597 21.4606C7.1776 24.3826 10.5329 26.8353 13.5632 28.8886L18.7958 32.4312C19.0756 32.6203 19.4057 32.7214 19.7435 32.7214C20.0812 32.7214 20.4113 32.6203 20.6912 32.4312L25.9237 28.8886C26.894 28.232 27.8958 27.5348 28.8954 26.7947C29.0217 26.7003 29.1111 26.5648 29.1482 26.4116C29.1853 26.2584 29.1677 26.097 29.0985 25.9553L26.0185 19.7457C25.9851 19.6784 25.9355 19.6205 25.874 19.5772C25.8126 19.5339 25.7413 19.5067 25.6667 19.498C25.592 19.4892 25.5164 19.4992 25.4466 19.5271C25.3769 19.555 25.3152 19.5999 25.2671 19.6577L25.1024 19.8563C24.6791 20.3699 24.1475 20.7835 23.5455 21.0675C22.9436 21.3515 22.2863 21.4988 21.6208 21.4989H17.4871C16.2902 21.4989 15.1424 21.0235 14.296 20.1772C13.4497 19.3309 12.9743 18.183 12.9743 16.9862C12.9743 15.7893 13.4497 14.6414 14.296 13.7951C15.1424 12.9488 16.2902 12.4734 17.4871 12.4734H19.0711C19.2044 12.4734 19.3361 12.4438 19.4566 12.3869C19.5772 12.3299 19.6836 12.2469 19.7683 12.1439L23.3131 7.84549C23.7997 7.25576 24.4281 6.79932 25.1394 6.51901C25.8508 6.23871 26.6216 6.14372 27.3797 6.24296C28.1378 6.34221 28.8583 6.63243 29.4735 7.0864C30.0887 7.54036 30.5784 8.14319 30.8968 8.8383L32.7087 12.7893C32.8983 13.2044 33.4398 13.315 33.8324 13.0848C34.5217 12.6841 35.305 12.4731 36.1023 12.4734H38.7829C38.9472 12.4752 39.1061 12.4152 39.2282 12.3053C39.3503 12.1953 39.4265 12.0435 39.4418 11.8799C39.4719 11.5189 39.4869 11.1541 39.4869 10.7856C39.4869 4.6933 34.1393 0 27.8665 0C24.6308 0 21.7855 1.5163 19.7435 3.47936C17.7014 1.5163 14.8539 0.00225623 11.6204 0.00225623Z" fill="#D10119"/>
<path d="M28.3337 10.0162C28.2143 9.75571 28.0306 9.52982 27.8 9.35971C27.5694 9.1896 27.2993 9.08083 27.0152 9.04362C26.731 9.00641 26.4421 9.04197 26.1754 9.14697C25.9088 9.25196 25.6732 9.42295 25.4907 9.6439L20.8267 15.2962H17.4872C17.0384 15.2962 16.608 15.4745 16.2906 15.7918C15.9732 16.1092 15.7949 16.5396 15.7949 16.9885C15.7949 17.4373 15.9732 17.8677 16.2906 18.1851C16.608 18.5025 17.0384 18.6808 17.4872 18.6808H21.6232C21.8729 18.6808 22.1196 18.6257 22.3454 18.5192C22.5713 18.4127 22.7708 18.2575 22.9296 18.0648L26.3819 13.8792L30.4277 22.7062C30.5471 22.9667 30.7308 23.1926 30.9614 23.3627C31.192 23.5328 31.462 23.6416 31.7462 23.6788C32.0303 23.716 32.3193 23.6804 32.5859 23.5754C32.8526 23.4704 33.0882 23.2994 33.2707 23.0785L36.899 18.6785H42.3076C42.7564 18.6785 43.1868 18.5002 43.5042 18.1829C43.8216 17.8655 43.9999 17.435 43.9999 16.9862C43.9999 16.5374 43.8216 16.1069 43.5042 15.7896C43.1868 15.4722 42.7564 15.2939 42.3076 15.2939H36.1025C35.853 15.2945 35.6066 15.3502 35.3812 15.457C35.1557 15.5639 34.9567 15.7193 34.7983 15.9122L32.3794 18.8432L28.3337 10.0162Z" fill="#D10119"/>
</svg>
