<svg width="25" height="25" viewBox="0 0 25 25" fill="none" xmlns="http://www.w3.org/2000/svg">
<path d="M12.6792 0C10.2984 0 7.97106 0.705994 5.99148 2.0287C4.01191 3.35141 2.46901 5.23143 1.55792 7.43102C0.646817 9.63061 0.408432 12.051 0.872906 14.386C1.33738 16.7211 2.48385 18.866 4.16734 20.5495C5.85083 22.233 7.99573 23.3795 10.3308 23.8439C12.6659 24.3084 15.0862 24.07 17.2858 23.1589C19.4854 22.2478 21.3654 20.7049 22.6881 18.7254C24.0108 16.7458 24.7168 14.4184 24.7168 12.0376C24.7132 8.84616 23.4438 5.78646 21.1871 3.52976C18.9304 1.27306 15.8707 0.00364114 12.6792 0ZM12.6792 22.3556C9.94273 22.3556 7.31832 21.2685 5.38333 19.3335C3.44833 17.3985 2.36127 14.7741 2.36127 12.0376C2.36127 9.30112 3.44833 6.67671 5.38333 4.74172C7.31832 2.80673 9.94273 1.71966 12.6792 1.71966V12.0376L19.9714 19.3298C19.0152 20.2897 17.8787 21.0511 16.6273 21.5704C15.3758 22.0896 14.0341 22.3565 12.6792 22.3556Z" fill="#023474"/>
</svg>
