<svg width="34" height="47" viewBox="0 0 34 47" fill="none" xmlns="http://www.w3.org/2000/svg">
<path d="M32 29.5078C32 38.713 26.2052 44.5078 17 44.5078C7.79479 44.5078 2 38.713 2 29.5078C2 19.6297 12.7531 6.29428 16.051 2.43699C16.1684 2.29994 16.314 2.18992 16.4779 2.11449C16.6418 2.03906 16.8201 2 17.0005 2C17.1809 2 17.3592 2.03906 17.5231 2.11449C17.687 2.18992 17.8327 2.29994 17.95 2.43699C21.2469 6.29428 32 19.6297 32 29.5078Z" fill="white" stroke="#2563EB" stroke-width="3.33333" stroke-miterlimit="10"/>
<path d="M26.1665 30.3412C26.1665 32.3303 25.3763 34.238 23.9698 35.6445C22.5633 37.051 20.6556 37.8412 18.6665 37.8412" fill="white"/>
<path d="M26.1665 30.3412C26.1665 32.3303 25.3763 34.238 23.9698 35.6445C22.5633 37.051 20.6556 37.8412 18.6665 37.8412" stroke="#2563EB" stroke-width="3.33333" stroke-linecap="round" stroke-linejoin="round"/>
</svg>
