<svg width="15" height="16" viewBox="0 0 15 16" fill="none" xmlns="http://www.w3.org/2000/svg">
<rect width="15" height="16" rx="4" fill="#D10119"/>
<path d="M6.37107 3.25221C6.35613 3.17265 6.30958 3.10202 6.24149 3.05562C6.1734 3.00923 6.08927 2.9908 6.00731 3.00434C5.96693 3.011 5.9283 3.0254 5.89369 3.04671C5.85908 3.06802 5.82916 3.09582 5.80569 3.12848C5.78222 3.16114 5.76565 3.19802 5.75696 3.23696C5.74827 3.27591 5.74762 3.31615 5.75506 3.35534C5.76172 3.38988 5.76889 3.4241 5.77656 3.45799C4.86153 3.82918 4.34102 4.31859 4.05801 4.85348C3.77075 5.39689 3.7515 5.95051 3.75025 6.36233L3.17099 7.08671C3.10273 7.17216 3.05322 7.27034 3.02555 7.37516C2.99787 7.47999 2.99262 7.58923 3.0101 7.69611C3.02759 7.80299 3.06744 7.90524 3.1272 7.99652C3.18695 8.08781 3.26534 8.16618 3.35749 8.22679L8.12462 11.3634C8.75527 11.7783 9.49914 12 10.2604 12H11.4067C11.8293 12 12.2345 11.8367 12.5333 11.546C12.8321 11.2552 13 10.8609 13 10.4498C13 9.57875 12.2552 8.96601 11.565 8.67412C11.3202 8.57074 11.1134 8.42893 10.9817 8.23944L9.43565 5.67273C9.45515 5.66981 9.47449 5.66673 9.49366 5.66349C9.53397 5.65682 9.57252 5.64244 9.60707 5.62118C9.64163 5.59991 9.67151 5.57219 9.69497 5.53961C9.71844 5.50703 9.73502 5.47024 9.74376 5.43138C9.75251 5.39252 9.75324 5.35235 9.74591 5.31321C9.73103 5.23361 9.6845 5.16292 9.6164 5.11648C9.54831 5.07003 9.46414 5.05157 9.38215 5.0651C9.28515 5.08132 9.18748 5.09194 9.08915 5.09697L9.07715 5.07727L9.03864 5.09916C8.48763 5.11765 7.92611 4.96781 7.45735 4.68978C6.89084 4.3541 6.48183 3.84572 6.37107 3.25221ZM8.72814 5.70046L10.4472 8.55493L10.4564 8.56953C10.6772 8.89255 11.0019 9.09907 11.316 9.23188C11.7587 9.41918 12.1192 9.71253 12.2817 10.0536H10.2749C9.88881 10.0536 9.5115 9.94134 9.1914 9.73126L8.03812 8.97404L8.65563 8.62717C8.81353 8.53849 8.92875 8.39242 8.97596 8.22108C9.02317 8.04975 8.99851 7.86719 8.90739 7.71355L8.32987 6.74033C8.23872 6.58671 8.08859 6.4746 7.91249 6.42867C7.7364 6.38273 7.54876 6.40673 7.39085 6.49538L5.70456 7.44257L5.17079 7.0923L5.90731 6.67879C5.9855 6.63485 6.05404 6.57636 6.10899 6.50666C6.16395 6.43695 6.20426 6.3574 6.22761 6.27254C6.25097 6.18768 6.25691 6.09917 6.24511 6.01207C6.23331 5.92497 6.20398 5.84099 6.15882 5.76492L5.33255 4.37259C5.5391 4.23769 5.75894 4.12313 5.98881 4.03059C6.24257 4.51999 6.65283 4.92159 7.13434 5.20716C7.61765 5.49274 8.16407 5.66187 8.72814 5.70046ZM7.4616 8.5958L6.28107 7.82082L7.70336 7.02201C7.71769 7.01397 7.73471 7.01179 7.75068 7.01594C7.76666 7.02009 7.7803 7.03023 7.78861 7.04414L8.36613 8.0176C8.37438 8.03155 8.37663 8.0481 8.37236 8.06365C8.3681 8.0792 8.35768 8.09247 8.34338 8.10055L7.4616 8.5958ZM4.61403 5.13151C4.68024 5.00678 4.76102 4.88989 4.85478 4.78318L5.61755 6.06897C5.62581 6.08292 5.62805 6.09947 5.62379 6.11502C5.61953 6.13057 5.6091 6.14384 5.5948 6.15192L4.59453 6.71381L4.37502 6.56981V6.46644C4.37502 6.03638 4.37927 5.57494 4.61403 5.13151ZM3.6645 7.45985L3.99101 7.05119L8.84189 10.2353C9.26523 10.5132 9.76425 10.6616 10.2749 10.6617H12.3505C12.3011 10.8692 12.181 11.0544 12.0096 11.1871C11.8382 11.3197 11.6257 11.3919 11.4067 11.3919H10.2602C9.62373 11.3919 9.00186 11.2065 8.47463 10.8597L3.7075 7.72304C3.68622 7.70905 3.66813 7.69095 3.65433 7.66988C3.64054 7.6488 3.63134 7.62519 3.62731 7.60052C3.62327 7.57584 3.62449 7.55062 3.63089 7.52642C3.63729 7.50223 3.64873 7.47956 3.6645 7.45985Z" fill="white"/>
</svg>
