<svg width="15" height="16" viewBox="0 0 15 16" fill="none" xmlns="http://www.w3.org/2000/svg">
<rect width="15" height="16" rx="4" fill="#023474"/>
<path d="M11.0556 12C11.0556 11.3797 11.0556 11.0696 10.979 10.8173C10.8067 10.2491 10.362 9.80446 9.79385 9.6321C9.5415 9.55555 9.23137 9.55555 8.61112 9.55555H6.3889C5.76865 9.55555 5.45853 9.55555 5.20617 9.6321C4.63799 9.80446 4.19336 10.2491 4.02101 10.8173C3.94446 11.0696 3.94446 11.3797 3.94446 12M9.50001 6C9.50001 7.10457 8.60458 8 7.50001 8C6.39544 8 5.50001 7.10457 5.50001 6C5.50001 4.89543 6.39544 4 7.50001 4C8.60458 4 9.50001 4.89543 9.50001 6Z" stroke="white" stroke-linecap="round" stroke-linejoin="round"/>
</svg>
