<svg width="16" height="20" viewBox="0 0 16 20" fill="none" xmlns="http://www.w3.org/2000/svg">
<path d="M8.00187 19.1428C8.55873 19.143 9.09651 18.9399 9.51421 18.5716C9.93192 18.2034 10.2008 17.6953 10.2704 17.1428C10.2899 16.9862 10.1596 16.8571 10.0019 16.8571H6.00188C5.84417 16.8571 5.71388 16.9862 5.73331 17.1428C5.80292 17.6953 6.07182 18.2034 6.48953 18.5716C6.90724 18.9399 7.44501 19.143 8.00187 19.1428ZM2.28761 6.57144C2.28761 5.05592 2.88965 3.60248 3.96128 2.53085C5.03291 1.45921 6.48636 0.857178 8.00187 0.857178C9.51739 0.857178 10.9708 1.45921 12.0425 2.53085C13.1141 3.60248 13.7161 5.05592 13.7161 6.57144V9.93942C13.7161 9.99733 13.7321 10.0503 13.7641 10.0983L15.7104 13.0183C15.8839 13.2796 15.9833 13.583 15.9981 13.8964C16.0129 14.2097 15.9425 14.5211 15.7945 14.7977C15.6464 15.0742 15.4262 15.3054 15.1572 15.4668C14.8883 15.6282 14.5806 15.7137 14.267 15.7143H1.73676C1.42245 15.715 1.11386 15.6303 0.844028 15.4691C0.5742 15.3079 0.353303 15.0763 0.204998 14.7992C0.0566917 14.5221 -0.0134362 14.2098 0.00212512 13.8959C0.0176864 13.582 0.118351 13.2782 0.293336 13.0171L2.23961 10.0983C2.27037 10.051 2.28702 9.99586 2.28761 9.93942V6.57144ZM8.00187 2.57146C6.94101 2.57146 5.9236 2.99288 5.17346 3.74302C4.42332 4.49317 4.00189 5.51058 4.00189 6.57144V9.93942C4.00189 10.3348 3.88532 10.72 3.66589 11.048L1.71962 13.9691L1.71619 13.9805L1.71733 13.9874C1.71733 13.9897 1.71885 13.992 1.7219 13.9943L1.72876 13.9988L1.73676 14H14.267L14.275 13.9988L14.2818 13.9943L14.2864 13.9874L14.2876 13.9794L14.2841 13.968L12.3379 11.0491C12.1189 10.7208 12.002 10.3351 12.0019 9.94056V6.57144C12.0019 5.51058 11.5804 4.49317 10.8303 3.74302C10.0801 2.99288 9.06273 2.57146 8.00187 2.57146Z" fill="#374151"/>
</svg>
