<svg width="20" height="20" viewBox="0 0 20 20" fill="none" xmlns="http://www.w3.org/2000/svg">
<path d="M15 6.36304H10M15 9.77588H7M15 15.6265V17.9038C15 18.4234 15 18.6832 14.8908 18.8166C14.7958 18.9327 14.6517 19.0002 14.4995 19C14.3244 18.9998 14.1163 18.8375 13.7002 18.5129L11.3148 16.6521C10.8275 16.272 10.5838 16.0819 10.3125 15.9467C10.0718 15.8268 9.81557 15.7392 9.55079 15.6862C9.25233 15.6265 8.9403 15.6265 8.31625 15.6265H5.8C4.11984 15.6265 3.27976 15.6265 2.63803 15.3076C2.07354 15.0272 1.6146 14.5797 1.32698 14.0292C1 13.4035 1 12.5843 1 10.946V5.68047C1 4.04215 1 3.22299 1.32698 2.59724C1.6146 2.04681 2.07354 1.5993 2.63803 1.31884C3.27976 1 4.11984 1 5.8 1H14.2C15.8802 1 16.7202 1 17.362 1.31884C17.9265 1.5993 18.3854 2.04681 18.673 2.59724C19 3.22299 19 4.04215 19 5.68047V11.7261C19 12.6329 19 13.0863 18.8978 13.4583C18.6204 14.4678 17.8117 15.2563 16.7765 15.5268C16.395 15.6265 15.93 15.6265 15 15.6265Z" stroke="white" stroke-width="2" stroke-linecap="round" stroke-linejoin="round"/>
</svg>
