<svg width="18" height="20" viewBox="0 0 18 20" fill="none" xmlns="http://www.w3.org/2000/svg">
<path d="M8.04789 20C8.60796 20.0002 9.14882 19.7959 9.56893 19.4255C9.98904 19.0552 10.2595 18.5442 10.3295 17.9885C10.349 17.831 10.218 17.7011 10.0594 17.7011H6.0364C5.87778 17.7011 5.74675 17.831 5.76629 17.9885C5.83629 18.5442 6.10675 19.0552 6.52685 19.4255C6.94696 19.7959 7.48783 20.0002 8.04789 20ZM2.30077 7.35632C2.30077 5.83208 2.90627 4.37028 3.98406 3.29249C5.06186 2.21469 6.52366 1.60919 8.04789 1.60919C9.57213 1.60919 11.0339 2.21469 12.1117 3.29249C13.1895 4.37028 13.795 5.83208 13.795 7.35632V10.7437C13.795 10.8019 13.8111 10.8552 13.8433 10.9034L15.8008 13.8402C15.9752 14.1031 16.0752 14.4083 16.0901 14.7234C16.105 15.0385 16.0342 15.3517 15.8853 15.6298C15.7364 15.908 15.5149 16.1405 15.2444 16.3029C14.9739 16.4652 14.6645 16.5512 14.349 16.5517H1.74675C1.43063 16.5525 1.12026 16.4672 0.848883 16.3051C0.577503 16.143 0.355335 15.9101 0.206177 15.6314C0.0570177 15.3527 -0.0135134 15.0386 0.00213735 14.7229C0.0177881 14.4072 0.119031 14.1017 0.295023 13.8391L2.25249 10.9034C2.28343 10.8559 2.30018 10.8004 2.30077 10.7437V7.35632ZM8.04789 3.33333C6.98093 3.33333 5.95767 3.75718 5.20321 4.51163C4.44876 5.26609 4.02491 6.28935 4.02491 7.35632V10.7437C4.02491 11.1414 3.90767 11.5287 3.68698 11.8586L1.72951 14.7965L1.72606 14.808L1.72721 14.8149C1.72721 14.8172 1.72874 14.8195 1.7318 14.8218L1.7387 14.8264L1.74675 14.8276H14.349L14.3571 14.8264L14.364 14.8218L14.3686 14.8149L14.3697 14.8069L14.3663 14.7954L12.4088 11.8598C12.1887 11.5296 12.0711 11.1417 12.0709 10.7448V7.35632C12.0709 6.28935 11.647 5.26609 10.8926 4.51163C10.1381 3.75718 9.11486 3.33333 8.04789 3.33333Z" fill="#374151"/>
<ellipse cx="12.0689" cy="4.02301" rx="4.02301" ry="4.02301" fill="#D10119"/>
<path d="M13.9014 2.34375V8H13.2295L10.167 3.59375H10.1123V8H9.40918V2.34375H10.0889L13.1514 6.75781H13.2061V2.34375H13.9014Z" fill="white"/>
</svg>
