<svg width="72" height="72" viewBox="0 0 72 72" fill="none" xmlns="http://www.w3.org/2000/svg">
<circle cx="36" cy="36" r="35" stroke="#6B7280" stroke-width="2"/>
<path d="M46.8 26.4C48.7096 26.4 50.5409 27.1586 51.8912 28.5088C53.2414 29.8591 54 31.6904 54 33.6V52.8C54 54.7096 53.2414 56.5409 51.8912 57.8912C50.5409 59.2414 48.7096 60 46.8 60H25.2C23.2904 60 21.4591 59.2414 20.1088 57.8912C18.7586 56.5409 18 54.7096 18 52.8V33.6C18 31.6904 18.7586 29.8591 20.1088 28.5088C21.4591 27.1586 23.2904 26.4 25.2 26.4V22.8C25.2 16.8 30 12 36 12C42 12 46.8 16.8 46.8 22.8V26.4ZM25.2 28.8C23.927 28.8 22.7061 29.3057 21.8059 30.2059C20.9057 31.1061 20.4 32.327 20.4 33.6V52.8C20.4 54.073 20.9057 55.2939 21.8059 56.1941C22.7061 57.0943 23.927 57.6 25.2 57.6H46.8C48.073 57.6 49.2939 57.0943 50.1941 56.1941C51.0943 55.2939 51.6 54.073 51.6 52.8V33.6C51.6 32.327 51.0943 31.1061 50.1941 30.2059C49.2939 29.3057 48.073 28.8 46.8 28.8H25.2ZM44.4 26.4V22.8C44.4 20.5722 43.515 18.4356 41.9397 16.8603C40.3644 15.285 38.2278 14.4 36 14.4C33.7722 14.4 31.6356 15.285 30.0603 16.8603C28.485 18.4356 27.6 20.5722 27.6 22.8V26.4H44.4Z" fill="#6B7280"/>
</svg>
