<svg width="22" height="23" viewBox="0 0 22 23" fill="none" xmlns="http://www.w3.org/2000/svg">
<path d="M12.0915 1.64511C11.7011 1.34149 11.5059 1.18968 11.2904 1.13133C11.1002 1.07984 10.8998 1.07984 10.7096 1.13133C10.4941 1.18968 10.2989 1.34149 9.90855 1.6451L2.37266 7.50636C1.86891 7.89816 1.61704 8.09406 1.43559 8.33939C1.27485 8.55671 1.15511 8.80153 1.08225 9.06183C1 9.35568 1 9.67477 1 10.3129V18.3518C1 19.5963 1 20.2186 1.24221 20.694C1.45526 21.1121 1.79522 21.4521 2.21335 21.6651C2.68871 21.9073 3.31099 21.9073 4.55556 21.9073H6.77778C7.08892 21.9073 7.24449 21.9073 7.36333 21.8468C7.46786 21.7935 7.55285 21.7085 7.60612 21.604C7.66667 21.4851 7.66667 21.3296 7.66667 21.0184V13.6851C7.66667 13.0628 7.66667 12.7517 7.78777 12.514C7.8943 12.3049 8.06428 12.1349 8.27334 12.0284C8.51102 11.9073 8.82216 11.9073 9.44444 11.9073H12.5556C13.1778 11.9073 13.489 11.9073 13.7267 12.0284C13.9357 12.1349 14.1057 12.3049 14.2122 12.514C14.3333 12.7517 14.3333 13.0628 14.3333 13.6851V21.0184C14.3333 21.3296 14.3333 21.4851 14.3939 21.604C14.4471 21.7085 14.5321 21.7935 14.6367 21.8468C14.7555 21.9073 14.9111 21.9073 15.2222 21.9073H17.4444C18.689 21.9073 19.3113 21.9073 19.7866 21.6651C20.2048 21.4521 20.5447 21.1121 20.7578 20.694C21 20.2186 21 19.5963 21 18.3518V10.3129C21 9.67477 21 9.35568 20.9177 9.06183C20.8449 8.80153 20.7252 8.55671 20.5644 8.33939C20.383 8.09406 20.1311 7.89816 19.6273 7.50636L12.0915 1.64511Z" stroke="#9CA3AF" stroke-width="2" stroke-linecap="round" stroke-linejoin="round"/>
</svg>
