<svg width="101" height="34" viewBox="0 0 101 34" fill="none" xmlns="http://www.w3.org/2000/svg">
<g clip-path="url(#clip0_521_1954)">
<path d="M36.4855 12.5674L38.3229 5.7629H34.2829L35.8236 0.0679321H28.4854L23.8634 17.1642H10.1799C13.0444 16.2358 15.7606 15.3187 18.2371 14.4242C21.5124 13.2581 22.7906 11.8541 23.715 8.42358L25.7579 0.883117H6.77898L5.29537 6.39694H4.75898L3.12701 12.4542H4.98723C4.09706 12.7146 3.19548 12.975 2.2939 13.2354L1.31243 13.5185L2.41943 19.6097L3.65198 19.2361C3.7661 19.2021 3.88023 19.1682 3.99435 19.1229L2.83028 23.4366H2.86452L0 34H27.3784L29.0675 27.7276H28.3485L31.2016 17.1755L32.4455 12.5674H36.4855Z" fill="#023474"/>
<path d="M66.8428 11.6277L69.9698 0.0679321H62.6316L56.6287 22.293H42.3746L43.5158 18.036H55.7728L60.3263 1.21146H40.6855L38.8938 7.84615H51.1964L50.2035 11.4805H37.9466L33.2446 28.9164H54.8369L53.4789 33.9207H60.8171L64.9598 18.6134H69.2851L71.1681 11.6277H66.8428Z" fill="#023474"/>
<path d="M88.7887 9.69164H82.9456L83.7901 6.55544H88.9143L90.6832 0H83.288C80.4919 0 77.7187 2.1625 76.9769 4.91375L75.6873 9.69164H71.9326L70.1637 16.2471H73.9069L69.73 31.7016H76.9997L81.1766 16.2471H87.0198L88.7887 9.69164Z" fill="#023474"/>
<path d="M93.7301 0L91.6074 7.84615H98.8771L101 0H93.7301Z" fill="#023474"/>
<path d="M85.1709 31.713H92.4292L98.3751 9.69165H91.1168L85.1709 31.713Z" fill="#023474"/>
<path d="M2.53369 32.8678L4.97595 23.8102H24.2972L24.708 22.3044H5.35256L6.43674 18.2964H30.768L28.3258 27.354H8.99313L8.58228 28.8598H28.6225L27.5383 32.8678H2.53369ZM19.2187 6.1705H7.57798L8.6964 2.01532H25.3129L23.6581 8.12921C22.825 11.2088 21.8093 12.3183 18.8991 13.3487C14.3113 14.9903 9.25561 16.6434 4.33686 18.1379L3.6407 14.311C7.20137 13.2694 10.4882 12.307 13.6037 11.3107H5.63787L6.66499 7.51782H18.8535L19.2187 6.15918V6.1705ZM26.0661 17.2661L30.4028 1.20013H35.3787L33.838 6.88378H37.878L36.6454 11.4239H32.6054L31.0305 17.2547H26.0547L26.0661 17.2661Z" fill="#D10119"/>
<path d="M35.7783 27.7842L39.8754 12.6127H52.1323L53.7301 6.71395H41.4389L42.6144 2.35498H59.8814L55.9441 16.9151H43.6871L41.9296 23.4252H56.5261L55.3506 27.7842H35.7783ZM56.024 32.7999L64.5491 1.20013H69.5249L66.4093 12.7599H70.7346L69.4564 17.4812H65.1311L60.9998 32.7885H56.024V32.7999Z" fill="#D10119"/>
<path d="M72.2751 30.5808L76.452 15.1262H72.6973L73.8614 10.8352H77.6161L79.134 5.21948C79.7616 2.89847 82.1126 1.14355 84.3494 1.14355H90.2611L89.097 5.4346H84.5891C84.2696 5.4346 83.9043 5.71765 83.8016 6.07995L82.512 10.8352H88.3552L87.1911 15.1262H81.348L77.171 30.5808H72.2637H72.2751Z" fill="#D10119"/>
<path d="M87.7046 30.5808L93.0342 10.8352H97.9301L92.6005 30.5808H87.7046ZM94.1526 6.71395L95.6591 1.1322H100.555L99.0485 6.71395H94.1526Z" fill="#D10119"/>
</g>
<defs>
<clipPath id="clip0_521_1954">
<rect width="101" height="34" fill="white"/>
</clipPath>
</defs>
</svg>
