<svg width="24" height="18" viewBox="0 0 24 18" fill="none" xmlns="http://www.w3.org/2000/svg">
<path d="M22.5661 7.81371C23.1078 8.52229 23.1078 9.47886 22.5661 10.1863C20.8598 12.4137 16.7661 17 11.9867 17C7.20724 17 3.11353 12.4137 1.40724 10.1863C1.14331 9.84717 1 9.42972 1 9C1 8.57028 1.14331 8.15283 1.40724 7.81371C3.11353 5.58629 7.20724 1 11.9867 1C16.7661 1 20.8598 5.58629 22.5661 7.81371Z" stroke="#DDDDDD" stroke-width="1.6" stroke-linecap="round" stroke-linejoin="round"/>
<path d="M11.9868 12.4286C13.8803 12.4286 15.4154 10.8936 15.4154 9.00001C15.4154 7.10647 13.8803 5.57144 11.9868 5.57144C10.0933 5.57144 8.55823 7.10647 8.55823 9.00001C8.55823 10.8936 10.0933 12.4286 11.9868 12.4286Z" stroke="#DDDDDD" stroke-width="1.6" stroke-linecap="round" stroke-linejoin="round"/>
</svg>
