<svg width="22" height="18" viewBox="0 0 22 18" fill="none" xmlns="http://www.w3.org/2000/svg">
<path d="M5.48673 14.129C3.64173 12.819 2.18173 11.115 1.35673 10.039C1.12554 9.74219 1 9.37672 1 9.0005C1 8.62428 1.12554 8.25881 1.35673 7.962C2.84973 6.013 6.43173 2 10.6137 2C12.4897 2 14.2437 2.807 15.7437 3.874" stroke="#DDDDDD" stroke-width="1.6" stroke-linecap="round" stroke-linejoin="round"/>
<path d="M12.7438 6.887C12.4661 6.60467 12.1352 6.38011 11.7703 6.22629C11.4054 6.07246 11.0136 5.99241 10.6176 5.99075C10.2215 5.98909 9.82912 6.06586 9.46292 6.21662C9.09672 6.36738 8.76399 6.58916 8.48393 6.86915C8.20387 7.14915 7.98201 7.48183 7.83116 7.84799C7.68031 8.21416 7.60346 8.60657 7.60502 9.00259C7.60659 9.3986 7.68655 9.79039 7.84029 10.1554C7.99402 10.5203 8.2185 10.8512 8.50077 11.129M2.61377 17L18.6138 1M8.61377 15.704C9.2629 15.8976 9.9364 15.9972 10.6138 16C14.7958 16 18.3778 11.987 19.8708 10.038C20.1014 9.74071 20.2265 9.37509 20.2263 8.99883C20.2261 8.62256 20.1007 8.25707 19.8698 7.96C19.345 7.27557 18.7821 6.6212 18.1838 6" stroke="#DDDDDD" stroke-width="1.6" stroke-linecap="round" stroke-linejoin="round"/>
</svg>
