<svg width="32" height="17" viewBox="0 0 32 17" fill="none" xmlns="http://www.w3.org/2000/svg">
<path d="M1 8.5C1 4.35786 4.35786 1 8.5 1H23.5C27.6421 1 31 4.35786 31 8.5C31 12.6421 27.6421 16 23.5 16H8.5C4.35786 16 1 12.6421 1 8.5Z" fill="#023474"/>
<path d="M23.5 16C27.6421 16 31 12.6421 31 8.5C31 4.35786 27.6421 1 23.5 1C19.3579 1 16 4.35786 16 8.5C16 12.6421 19.3579 16 23.5 16Z" fill="#023474"/>
<path d="M23.5 16H8.5C4.35786 16 1 12.6421 1 8.5C1 4.35786 4.35786 1 8.5 1H23.5M23.5 16C27.6421 16 31 12.6421 31 8.5C31 4.35786 27.6421 1 23.5 1M23.5 16C19.3579 16 16 12.6421 16 8.5C16 4.35786 19.3579 1 23.5 1" stroke="white" stroke-width="2" stroke-linecap="round" stroke-linejoin="round"/>
</svg>
