<svg width="18" height="18" viewBox="0 0 18 18" fill="none" xmlns="http://www.w3.org/2000/svg">
<rect width="18" height="18" rx="9" fill="#D10119"/>
<path d="M5 5H6.5L7.5 4H10.5L11.5 5H13C13.2652 5 13.5196 5.10536 13.7071 5.29289C13.8946 5.48043 14 5.73478 14 6V12C14 12.2652 13.8946 12.5196 13.7071 12.7071C13.5196 12.8946 13.2652 13 13 13H5C4.73478 13 4.48043 12.8946 4.29289 12.7071C4.10536 12.5196 4 12.2652 4 12V6C4 5.73478 4.10536 5.48043 4.29289 5.29289C4.48043 5.10536 4.73478 5 5 5ZM9 6.5C8.33696 6.5 7.70107 6.76339 7.23223 7.23223C6.76339 7.70107 6.5 8.33696 6.5 9C6.5 9.66304 6.76339 10.2989 7.23223 10.7678C7.70107 11.2366 8.33696 11.5 9 11.5C9.66304 11.5 10.2989 11.2366 10.7678 10.7678C11.2366 10.2989 11.5 9.66304 11.5 9C11.5 8.33696 11.2366 7.70107 10.7678 7.23223C10.2989 6.76339 9.66304 6.5 9 6.5ZM9 7.5C9.39782 7.5 9.77936 7.65804 10.0607 7.93934C10.342 8.22064 10.5 8.60218 10.5 9C10.5 9.39782 10.342 9.77936 10.0607 10.0607C9.77936 10.342 9.39782 10.5 9 10.5C8.60218 10.5 8.22064 10.342 7.93934 10.0607C7.65804 9.77936 7.5 9.39782 7.5 9C7.5 8.60218 7.65804 8.22064 7.93934 7.93934C8.22064 7.65804 8.60218 7.5 9 7.5Z" fill="white"/>
</svg>
