<svg width="32" height="17" viewBox="0 0 32 17" fill="none" xmlns="http://www.w3.org/2000/svg">
<path d="M1 8.5C1 4.35786 4.35786 1 8.5 1H23.5C27.6421 1 31 4.35786 31 8.5C31 12.6421 27.6421 16 23.5 16H8.5C4.35786 16 1 12.6421 1 8.5Z" fill="#D10119"/>
<path d="M8.5 16C12.6421 16 16 12.6421 16 8.5C16 4.35786 12.6421 1 8.5 1C4.35786 1 1 4.35786 1 8.5C1 12.6421 4.35786 16 8.5 16Z" fill="#D10119"/>
<path d="M8.5 16H23.5C27.6421 16 31 12.6421 31 8.5C31 4.35786 27.6421 1 23.5 1H8.5M8.5 16C4.35786 16 1 12.6421 1 8.5C1 4.35786 4.35786 1 8.5 1M8.5 16C12.6421 16 16 12.6421 16 8.5C16 4.35786 12.6421 1 8.5 1" stroke="white" stroke-width="2" stroke-linecap="round" stroke-linejoin="round"/>
</svg>
